HIERARCHY
ROOT Hips
{
	OFFSET 0.00000 0.00000 0.00000
	CHANNELS 6 Xposition Yposition Zposition Zrotation Yrotation Xrotation 
	JOINT LHipJoint
	{
		OFFSET 0 0 0
		CHANNELS 3 Zrotation Yrotation Xrotation
		JOINT LeftUpLeg
		{
			OFFSET 1.39187 -1.60231 0.69152
			CHANNELS 3 Zrotation Yrotation Xrotation
			JOINT LeftLeg
			{
				OFFSET 2.43314 -6.68499 0.00000
				CHANNELS 3 Zrotation Yrotation Xrotation
				JOINT LeftFoot
				{
					OFFSET 2.32059 -6.37578 0.00000
					CHANNELS 3 Zrotation Yrotation Xrotation
					JOINT LeftToeBase
					{
						OFFSET 0.23021 -0.63250 1.71305
						CHANNELS 3 Zrotation Yrotation Xrotation
						End Site
						{
							OFFSET 0.00000 -0.00000 0.91647
						}
					}
				}
			}
		}
	}
	JOINT RHipJoint
	{
		OFFSET 0 0 0
		CHANNELS 3 Zrotation Yrotation Xrotation
		JOINT RightUpLeg
		{
			OFFSET -1.19407 -1.60231 0.69152
			CHANNELS 3 Zrotation Yrotation Xrotation
			JOINT RightLeg
			{
				OFFSET -2.44411 -6.71513 0.00000
				CHANNELS 3 Zrotation Yrotation Xrotation
				JOINT RightFoot
				{
					OFFSET -2.31924 -6.37207 0.00000
					CHANNELS 3 Zrotation Yrotation Xrotation
					JOINT RightToeBase
					{
						OFFSET -0.19473 -0.53502 1.87724
						CHANNELS 3 Zrotation Yrotation Xrotation
						End Site
						{
							OFFSET -0.00000 -0.00000 0.98293
						}
					}
				}
			}
		}
	}
	JOINT LowerBack
	{
		OFFSET 0 0 0
		CHANNELS 3 Zrotation Yrotation Xrotation
		JOINT Spine
		{
			OFFSET -0.01120 1.87307 0.09613
			CHANNELS 3 Zrotation Yrotation Xrotation
			JOINT Spine1
			{
				OFFSET 0.01099 1.87818 0.04834
				CHANNELS 3 Zrotation Yrotation Xrotation
				JOINT Neck
				{
					OFFSET 0 0 0
					CHANNELS 3 Zrotation Yrotation Xrotation
					JOINT Neck1
					{
						OFFSET 0.01702 1.40324 -0.12579
						CHANNELS 3 Zrotation Yrotation Xrotation
						JOINT Head
						{
							OFFSET -0.04239 1.38587 -0.01614
							CHANNELS 3 Zrotation Yrotation Xrotation
							End Site
							{
								OFFSET -0.02510 1.47031 -0.00154
							}
						}
					}
				}
				JOINT LeftShoulder
				{
					OFFSET 0 0 0
					CHANNELS 3 Zrotation Yrotation Xrotation
					JOINT LeftArm
					{
						OFFSET 2.95699 0.62343 0.11653
						CHANNELS 3 Zrotation Yrotation Xrotation
						JOINT LeftForeArm
						{
							OFFSET 4.68382 -0.00000 -0.00000
							CHANNELS 3 Zrotation Yrotation Xrotation
							JOINT LeftHand
							{
								OFFSET 2.98124 -0.00000 -0.00000
								CHANNELS 3 Zrotation Yrotation Xrotation
								JOINT LeftFingerBase
								{
									OFFSET 0 0 0
									CHANNELS 3 Zrotation Yrotation Xrotation
									JOINT LeftHandIndex1
									{
										OFFSET 0.70759 -0.00000 0.00000
										CHANNELS 3 Zrotation Yrotation Xrotation
										End Site
										{
											OFFSET 0.57048 -0.00000 0.00000
										}
									}
								}
								JOINT LThumb
								{
									OFFSET 0 0 0
									CHANNELS 3 Zrotation Yrotation Xrotation
									End Site
									{
										OFFSET 0.57919 -0.00000 0.57919
									}
								}
							}
						}
					}
				}
				JOINT RightShoulder
				{
					OFFSET 0 0 0
					CHANNELS 3 Zrotation Yrotation Xrotation
					JOINT RightArm
					{
						OFFSET -2.99027 0.88714 -0.02793
						CHANNELS 3 Zrotation Yrotation Xrotation
						JOINT RightForeArm
						{
							OFFSET -4.75876 -0.00000 -0.00000
							CHANNELS 3 Zrotation Yrotation Xrotation
							JOINT RightHand
							{
								OFFSET -2.93293 -0.00000 -0.00000
								CHANNELS 3 Zrotation Yrotation Xrotation
								JOINT RightFingerBase
								{
									OFFSET 0 0 0
									CHANNELS 3 Zrotation Yrotation Xrotation
									JOINT RightHandIndex1
									{
										OFFSET -0.83175 -0.00000 0.00000
										CHANNELS 3 Zrotation Yrotation Xrotation
										End Site
										{
											OFFSET -0.67058 -0.00000 0.00000
										}
									}
								}
								JOINT RThumb
								{
									OFFSET 0 0 0
									CHANNELS 3 Zrotation Yrotation Xrotation
									End Site
									{
										OFFSET -0.68082 -0.00000 0.68082
									}
								}
							}
						}
					}
				}
			}
		}
	}
}
MOTION
Frames: 12
Frame Time: .0083333
5.9853 16.5746 0.7704 570.7890 85.0772 587.1690 0.0000 0.0000 0.0000 -14.5369 -9.0002 -30.9190 12.9572 18.7667 68.9927 0.2547 0.9887 -9.9458 0.0268 -1.0569 -2.9053 0.0000 0.0000 0.0000 26.5142 12.7928 -24.3217 -2.2853 -9.4367 27.1711 -0.2274 -6.2013 -13.3662 -0.2547 3.2469 -8.9669 -3.1301 -0.5985 -15.3062 1.1663 -0.1467 -4.3464 2.9811 0.0155 3.9787 -6.1888 -2.2613 1.1379 9.6742 -3.6783 15.3076 3.9176 -1.4681 4.6496 -0.0000 -0.0000 0.0000 -93.1441 1.1485 -95.3531 6.2096 -10.6112 -0.5772 -0.0000 -0.0000 126.3500 8.6830 25.5241 3.7649 -7.1250 0.0000 -0.0000 -22.1168 54.3644 -5.2851 -0.0000 -0.0000 0.0000 91.0655 -1.2034 15.7704 -13.8466 22.5151 -2.7691 0.0000 0.0000 7.8336 -19.5244 6.4575 -2.2838 7.1250 -0.0000 -0.0000 5.3184 -23.1392 2.8123
6.1382 16.5813 0.7686 569.9280 85.0233 586.2890 0.0000 0.0000 0.0000 -14.4540 -9.6932 -32.0692 12.8559 18.7295 68.6773 0.3092 1.3895 -11.1031 0.0286 -1.0923 -3.0029 0.0000 0.0000 0.0000 26.5624 12.7826 -23.6672 -2.2888 -9.4434 27.1924 -0.2319 -6.1112 -13.3500 -0.2158 2.9905 -8.2524 -3.1353 -0.5333 -15.2950 1.1316 -0.0625 -4.2613 2.9632 0.0523 4.0563 -6.1884 -2.3183 1.0224 9.4930 -3.7337 15.3620 3.8570 -1.5020 4.6886 -0.0000 0.0000 0.0000 -93.0257 1.7776 -94.4771 6.1552 -10.5207 -0.5672 -0.0000 -0.0000 124.8340 8.2775 25.6866 3.6083 -7.1250 0.0000 -0.0000 -22.6099 54.4386 -5.4543 -0.0000 0.0000 0.0000 90.7466 -0.3015 16.8649 -14.0750 22.8418 -2.8572 0.0000 0.0000 6.9109 -20.1439 7.2899 -2.6649 7.1250 -0.0000 -0.0000 4.8578 -22.2299 2.6683
6.2907 16.5838 0.7675 568.9590 84.9326 585.3160 0.0000 0.0000 0.0000 -14.2956 -10.5148 -33.1672 12.6786 18.6630 68.1242 0.3893 1.6456 -12.5012 0.0396 -1.2838 -3.5301 0.0000 0.0000 0.0000 26.6208 12.7932 -22.9899 -2.2972 -9.4594 27.2433 -0.2126 -6.3464 -13.2745 -0.2239 3.0462 -8.4073 -3.1170 -0.5180 -15.1272 1.1056 -0.0509 -4.2584 2.9262 0.0588 3.9681 -6.4129 -2.2906 0.9158 9.6968 -3.7122 15.3527 3.9595 -1.4916 4.7080 0.0000 0.0000 0.0000 -92.9591 2.6462 -91.8615 6.0733 -10.3844 -0.5524 -0.0000 -0.0000 121.3990 7.5571 26.4850 3.3859 -7.1250 0.0000 -0.0000 -23.8135 55.0331 -6.1235 0.0000 0.0000 0.0000 90.4567 0.6081 17.3498 -14.3777 23.2720 -2.9757 0.0000 0.0000 7.8162 -20.2666 7.6451 -2.8123 7.1250 -0.0000 -0.0000 4.7679 -21.8472 2.6602
6.4447 16.5861 0.7657 568.2100 84.8430 584.5000 0.0000 0.0000 0.0000 -14.0873 -11.3883 -34.1318 12.4192 18.5623 67.3115 0.4770 1.7214 -13.7845 0.0417 -1.3175 -3.6229 0.0000 0.0000 0.0000 26.7266 12.7173 -22.2473 -2.3066 -9.4776 27.3009 -0.2006 -6.5885 -13.3274 -0.2669 3.3233 -9.1803 -3.0628 -0.3559 -15.0045 0.9829 0.1556 -4.2428 2.8022 0.1610 3.9042 -6.4214 -2.3852 1.0948 9.8573 -3.8561 15.2268 4.0064 -1.5589 4.6537 -0.0000 0.0000 0.0000 -92.7118 3.4782 -89.3542 6.0218 -10.2985 -0.5431 -0.0000 -0.0000 118.3470 6.7211 27.5458 3.1195 -7.1250 0.0000 -0.0000 -25.3407 55.8298 -7.0576 -0.0000 0.0000 0.0000 90.3664 1.3067 17.7419 -14.7938 23.8581 -3.1421 0.0000 0.0000 7.5973 -20.5945 7.5162 -2.8140 7.1250 -0.0000 -0.0000 4.5289 -21.9660 2.5137
6.5993 16.5936 0.7629 567.9830 84.8372 584.1560 0.0000 0.0000 0.0000 -13.9366 -12.0807 -34.9858 12.0850 18.4264 66.2581 0.5349 1.7932 -14.5819 0.0394 -1.2815 -3.5238 0.0000 0.0000 0.0000 26.8462 12.6052 -21.5031 -2.3185 -9.5002 27.3731 -0.2043 -6.6024 -13.4010 -0.2898 3.4617 -9.5669 -3.0185 -0.1147 -14.8827 0.8473 0.4660 -4.1707 2.6887 0.3115 3.8942 -6.3212 -2.5338 1.3706 9.8317 -4.0515 14.9647 3.9733 -1.6619 4.5421 0.0000 -0.0000 0.0000 -92.4331 4.2719 -86.3834 5.9390 -10.1603 -0.5284 -0.0000 -0.0000 114.8950 6.4615 27.6620 3.0098 -7.1250 0.0000 -0.0000 -25.6754 55.8826 -7.1937 0.0000 -0.0000 0.0000 90.2020 2.0623 18.5253 -15.1970 24.4198 -3.3069 0.0000 0.0000 5.7136 -20.8116 7.1056 -2.6919 7.1250 -0.0000 -0.0000 4.3697 -22.3909 2.3825
6.7534 16.5996 0.7599 568.8170 84.9460 584.9250 0.0000 0.0000 0.0000 -13.7968 -12.5625 -35.8559 11.6892 18.2561 65.0002 0.5781 1.9082 -15.1802 0.0409 -1.3050 -3.5885 0.0000 0.0000 0.0000 26.9485 12.6368 -20.8121 -2.3357 -9.5329 27.4771 -0.2092 -6.5942 -13.4714 -0.2949 3.4919 -9.6513 -2.9751 0.0702 -14.8819 0.7602 0.7028 -4.0542 2.6156 0.4223 4.0023 -6.4639 -2.5727 1.5988 10.0160 -4.1149 14.6079 4.0523 -1.7061 4.4058 0.0000 0.0000 0.0000 -92.2808 5.1238 -82.1272 5.8472 -10.0071 -0.5124 -0.0000 -0.0000 110.0140 6.7132 26.9595 3.0546 -7.1250 0.0000 -0.0000 -24.9478 55.3007 -6.6093 0.0000 0.0000 0.0000 89.9801 3.0638 19.2786 -15.4376 24.7522 -3.4071 0.0000 0.0000 4.3765 -20.7331 6.4641 -2.4402 7.1250 -0.0000 -0.0000 4.4280 -23.0775 2.3448
6.9047 16.5990 0.7540 571.0520 85.1163 587.1200 0.0000 0.0000 0.0000 -13.6133 -12.9089 -36.6617 11.2341 18.0477 63.5394 0.6336 1.9843 -15.8841 0.0493 -1.4323 -3.9390 0.0000 0.0000 0.0000 27.0982 12.6660 -20.1173 -2.3487 -9.5574 27.5550 -0.2212 -6.5371 -13.6027 -0.2960 3.4983 -9.6692 -2.8468 0.2932 -14.9082 0.6968 0.9767 -3.9282 2.5269 0.5513 4.1347 -6.5486 -2.6089 1.7013 10.0418 -4.1594 14.3603 4.0717 -1.7410 4.3194 -0.0000 0.0000 0.0000 -92.1749 5.8555 -78.4499 5.8077 -9.9411 -0.5055 -0.0000 -0.0000 105.7580 6.6458 26.8182 3.0091 -7.1250 0.0000 -0.0000 -24.9188 55.1604 -6.5136 -0.0000 0.0000 0.0000 89.7677 4.0459 19.7490 -15.6696 25.0707 -3.5048 0.0000 0.0000 3.9066 -20.6348 5.9321 -2.2287 7.1250 -0.0000 -0.0000 4.5037 -23.6478 2.3259
7.0563 16.5984 0.7464 574.0580 85.3493 590.0810 0.0000 0.0000 0.0000 -13.4616 -13.1848 -37.3866 10.7188 17.7947 61.8649 0.6827 2.1007 -16.5068 0.0778 -1.7996 -4.9522 0.0000 0.0000 0.0000 27.2382 12.7198 -19.3445 -2.3426 -9.5458 27.5182 -0.2313 -6.4161 -13.6390 -0.2738 3.3660 -9.2994 -2.6767 0.5405 -14.8597 0.6347 1.2738 -3.8126 2.4187 0.6931 4.2169 -6.5248 -2.6659 1.7581 9.8623 -4.2124 14.1225 4.0071 -1.7841 4.2398 -0.0000 -0.0000 0.0000 -92.0375 6.5081 -75.2065 5.7815 -9.8973 -0.5010 -0.0000 -0.0000 101.8580 6.2899 26.9399 2.8588 -7.1250 0.0000 -0.0000 -25.3458 55.2015 -6.6622 -0.0000 -0.0000 0.0000 89.5346 4.9634 20.2592 -15.9903 25.5075 -3.6418 0.0000 0.0000 3.4166 -20.5027 5.6028 -2.0908 7.1250 -0.0000 -0.0000 4.6047 -24.0034 2.3406
7.2095 16.6086 0.7419 576.4580 85.6287 592.4910 0.0000 0.0000 0.0000 -13.3353 -13.5677 -38.1256 10.1467 17.4915 59.9776 0.7031 2.2770 -16.8233 0.0988 -2.0270 -5.5802 0.0000 0.0000 0.0000 27.2723 12.8564 -18.5523 -2.3110 -9.4858 27.3273 -0.2371 -6.3146 -13.6285 -0.2584 3.2707 -9.0334 -2.5895 0.7722 -14.7047 0.5185 1.5672 -3.8280 2.2949 0.8402 4.1049 -6.5413 -2.7367 1.7305 9.8411 -4.3030 14.0405 3.9986 -1.8326 4.2277 0.0000 0.0000 0.0000 -91.8748 7.4184 -71.0334 5.7949 -9.9197 -0.5033 -0.0000 -0.0000 97.1954 5.8162 26.6975 2.6203 -7.1250 0.0000 -0.0000 -25.6414 54.8935 -6.5501 0.0000 0.0000 0.0000 89.3789 5.7893 20.4937 -16.2041 25.7966 -3.7343 0.0000 0.0000 3.2211 -20.4968 6.0021 -2.2385 7.1250 -0.0000 -0.0000 4.6053 -23.5793 2.3860
7.3663 16.6256 0.7383 578.5670 85.8217 594.5280 0.0000 0.0000 0.0000 -13.1272 -14.0374 -38.6719 9.5212 17.1317 57.8758 0.7103 2.3642 -16.9478 0.0663 -1.6615 -4.5710 0.0000 0.0000 0.0000 27.3770 12.8796 -17.5970 -2.2559 -9.3799 26.9910 -0.2377 -6.2736 -13.5974 -0.2650 3.3114 -9.1470 -2.5149 0.9998 -14.4328 0.3954 1.8541 -3.8647 2.1644 0.9856 3.9095 -6.5141 -2.8278 1.7278 9.8811 -4.4275 13.9402 4.0008 -1.8930 4.2087 -0.0000 -0.0000 0.0000 -91.6507 8.3245 -67.3960 5.8239 -9.9681 -0.5083 -0.0000 -0.0000 93.2805 5.4419 26.5663 2.4397 -7.1250 0.0000 -0.0000 -25.9146 54.7052 -6.5048 -0.0000 -0.0000 0.0000 89.2611 6.5934 20.5888 -16.2875 25.9090 -3.7707 0.0000 0.0000 3.1108 -20.8870 6.9282 -2.6355 7.1250 -0.0000 -0.0000 4.3143 -22.5759 2.3338
7.5231 16.6408 0.7316 581.8570 85.9637 597.7150 0.0000 0.0000 0.0000 -12.8673 -14.4149 -39.1160 8.8546 16.7133 55.5860 0.7169 2.4920 -17.0859 0.0529 -1.4849 -4.0841 0.0000 0.0000 0.0000 27.5853 12.8001 -16.5350 -2.1804 -9.2321 26.5241 -0.2325 -6.2477 -13.4909 -0.2693 3.3380 -9.2212 -2.3599 1.1953 -14.2562 0.3282 2.0847 -3.8169 2.0409 1.0987 3.8599 -6.4958 -2.8391 1.9818 9.8724 -4.4362 13.6016 3.9955 -1.9117 4.0641 0.0000 0.0000 0.0000 -91.4479 9.0803 -64.5563 5.8406 -9.9961 -0.5112 -0.0000 -0.0000 89.8846 5.3803 26.4273 2.4002 -7.1250 0.0000 -0.0000 -25.8815 54.5692 -6.4072 0.0000 0.0000 0.0000 89.1056 7.4602 20.8950 -16.4110 26.0748 -3.8248 0.0000 0.0000 2.9444 -20.8633 7.0571 -2.6809 7.1250 -0.0000 -0.0000 4.3317 -22.4399 2.3568
7.6780 16.6560 0.7243 584.6630 86.2267 600.5140 0.0000 0.0000 0.0000 -12.7751 -14.7500 -39.5582 8.1556 16.2325 53.1213 0.7114 2.6724 -17.1196 0.0751 -1.7675 -4.8636 0.0000 0.0000 0.0000 27.6264 12.7845 -15.5404 -2.0948 -9.0608 25.9858 -0.2213 -6.2950 -13.3614 -0.2601 3.2810 -9.0622 -2.3565 1.3552 -14.2539 0.2688 2.2944 -3.7269 2.0140 1.1978 3.9454 -6.6175 -2.8220 2.1623 9.8437 -4.4050 13.3364 4.0086 -1.9157 3.9535 -0.0000 0.0000 0.0000 -91.3843 9.6368 -62.8364 5.9050 -10.1036 -0.5225 -0.0000 -0.0000 87.4708 5.2414 25.9642 2.2999 -7.1250 0.0000 -0.0000 -25.7120 54.1286 -6.0759 -0.0000 0.0000 0.0000 88.8913 8.3991 21.1700 -16.5742 26.2931 -3.8969 0.0000 0.0000 3.0584 -20.3563 6.7160 -2.4846 7.1250 -0.0000 -0.0000 4.7043 -22.8276 2.5190
